<svg xmlns="http://www.w3.org/2000/svg" viewBox="0 0 33.837 33.837" width="512" height="512"><path d="M28.843 19.954c-.615-1.368-3.826-2.585-4.932-2.97-1.719-3.763-.787-8.514-.787-8.514-.309 1.35-.693 1.868-.693 1.868-.305 2.443-2.291 4.453-2.291 4.453a4.54 4.54 0 0 0 .201 1.688c-3.074 4.97-5.59 2.371-6.832.342.238-.546.381-1.21.338-2.031 0 0-1.992-2.01-2.295-4.453 0 0-.137-.188-.311-.616.123-.063.252-.18.387-.379 0 0 .77 3.383 5.732 4.944 0 0-.188.315.248.474h1.266s.707.039.707-.538c.006-.17-.018-.647-.59-.647l-1.613.02s-2.928-.119-5.533-4.443c0 0-.277-.647-.447-1.321 5.84.332 8.898-2.345 8.99-2.429.084.315.592 1.929 2.293 2.657 0 0 .064-.663.25-.725 0 0 .207.104.27.352 0 0 .443-4.242-1.486-5.827l.008-.023c-4.031-3.557-8.596-.851-8.596-.851-2.531 1.631-2.611 4.687-2.5 6.078-.419-.061-.86.072-.745 1.006 0 0 .467 1.696 1.148 1.704.152 1.668.201 4.651-.951 7.193-1.326.568-2.656.971-2.656.971-1.436.552-2.045 1.382-2.045 1.382-2.127 3.15-2.379 10.171-2.379 10.171.029 1.603.717 1.769.717 1.769 4.896 2.183 12.564 2.57 12.564 2.57 7.879.166 13.611-2.24 13.611-2.24.832-.526.861-.938.861-.938.577-5.032-1.909-10.697-1.909-10.697z" fill="#2d2d2d"/></svg>