<svg id="Layer_1" xmlns="http://www.w3.org/2000/svg" width="313" height="186" viewBox="0 0 360 360"><style>.st0{fill:#2d3973;stroke-width:20}</style><path class="st0" d="M352 131c-3.9 7.7-7.6 15.5-11.7 23.1-20.8 38.1-41.8 76.2-62.6 114.4-.7 1.3-.8 3-.8 4.5-.2 12.9.2 25.9-.5 38.7-.9 15.7-15.4 29.6-31.2 29.8-24.3.4-48.5.2-72.8.2H47.5c-20.3 0-31.8-8.7-37.2-28.4-.1-.2-.3-.3-.4-.5V49.4c.6-1.9 1.2-3.7 1.8-5.6 3.6-11.8 16-23.3 34-23.2 64.8.3 129.6.1 194.5.1 3.9 0 7.8.3 11.5 1.3 15.3 4.2 25 17.4 25.1 34.2.1 27.4 0 54.8 0 82.2v3.8c1.4-1 2.1-2.1 2.7-3.2 5.5-10 10.9-20.1 16.6-30.1 6.1-10.8 18.7-14.4 29.6-8.6 3.3 1.8 6.5 3.9 10 5.4 8.2 3.7 14 9.3 16.3 18.1v7.2zm-83.1 146c-1.2.9-1.9 1.4-2.5 1.9-10.2 8.7-20.3 17.4-30.5 26.1-5.1 4.3-8.5 4.7-14.3 1.4-5.3-3-6.8-6.4-5.9-12.8 2-13.6 4-27.3 5.8-40.9 1-7.5 2.9-14.4 6.7-21.1 13.2-23.3 26-46.9 38.8-70.4 1.1-1.9 1.7-4.4 1.7-6.6.1-32.6.1-65.3 0-97.9 0-2.8-.2-5.6-.9-8.3-3.3-12.4-13.1-19.8-26.3-19.9-26.3-.1-52.6 0-78.9 0-39.2 0-78.4 0-117.7.1-3.1 0-6.3.3-9.2 1.2-10.8 3.4-18 13.3-18 25.2v252c0 1.9.1 3.8.4 5.6 2.8 13.2 13.3 21.2 27.3 21.2h139c19.1 0 38.1.1 57.2 0 16.1-.1 27.3-11.3 27.4-27.3.1-7.2 0-14.5 0-21.7-.1-2.4-.1-4.8-.1-7.8zm4.3-17c17.3-31.4 34.3-62.5 51.4-93.6-13.3-7.3-26.2-14.4-39.2-21.6-17.2 31.4-34.3 62.4-51.4 93.6 13.2 7.3 26 14.4 39.2 21.6zm-4.4 6.6c-12.9-7.1-25.2-13.9-38-20.8-2.1 14.9-4.2 29.1-6.1 43.3-.1.5.1 1.5.5 1.7 2.8 1.6 5.6 3.3 8.5 4.6.6.3 1.9-.3 2.6-.9 2.9-2.3 5.6-4.7 8.4-7.1 7.8-6.9 15.7-13.7 24.1-20.8zM339.9 138c6.9-9.9 5-18.3-5.1-23.8l-11.4-6.3c-9.5-5.3-18.6-1.8-22.2 8.9 13 7 25.9 14.1 38.7 21.2zm-11.5 21.4c2.7-5 5.2-9.5 7.9-14.4-13.2-7.2-26.1-14.3-39.2-21.6-2.7 4.9-5.2 9.5-7.9 14.4 13.2 7.3 26.1 14.4 39.2 21.6z"/><path class="st0" d="M121.4 266v29.4c0 3.9-1.1 5.1-4.9 5.1H57.4c-3.8 0-5-1.2-5-5v-59.4c0-3.4 1.3-4.7 4.6-4.7h59.8c3.4 0 4.6 1.3 4.6 4.7V266zm-60.9 26.5h52.8v-53.1H60.5v53.1zm-7.3-112.7v-29.4c0-3.7 1.2-5 5-5 19.6-.1 39.2-.1 58.8 0 4 0 5.3 1.3 5.3 5.2v58.8c0 4-1.3 5.2-5.2 5.2H58.6c-4.2 0-5.3-1.1-5.3-5.3-.1-9.9-.1-19.7-.1-29.5zm61 26.6v-53.1H61.3v53.1h52.9zm-26.6-79.3H58.5c-4.3 0-5.4-1-5.4-5.2V63.1c0-4 1.1-5.1 5.2-5.1h58.4c4.4 0 5.4 1 5.4 5.3v58.8c0 4-1.2 5.1-5.2 5.1-9.7-.1-19.5-.1-29.3-.1zm26.5-8.1c.1-.8.3-1.2.3-1.6 0-16.4 0-32.7.1-49.1 0-2.5-1.4-2.6-3.2-2.6H63.9c-.9 0-1.7.2-2.6.3v52.9c17.7.1 35.1.1 52.8.1zm78.8 38.8h37c3.6 0 5.7 2.3 4.8 5.1-.8 2.4-2.8 2.9-5.1 2.9h-74.1c-3.5 0-5.4-1.9-4.8-4.8.6-2.7 2.7-3.2 5.1-3.2h37.1zm-.2 33.4h-36.4c-4 0-5.7-1.2-5.6-4 0-2.7 1.8-3.9 5.8-3.9h73.1c3.5 0 5.4 1.5 5.4 4s-1.9 3.9-5.5 3.9h-36.8zm.1-91.7h35c1.2 0 2.7-.4 3.6.2 1.4.8 3 2.1 3.3 3.4.2 1.1-1.2 2.8-2.4 3.8-.7.6-2.1.5-3.2.5h-72.7c-.7 0-1.3.1-2-.1-2.4-.4-3.9-1.7-3.7-4.3.2-2.4 1.7-3.5 4-3.5h38.1zm0-25.4h36.8c3.6 0 5.6 1.5 5.3 4-.3 3.1-2.5 3.9-5.3 3.9h-73.5c-2.5 0-4.8-.2-5.4-3.3-.5-2.8 1.2-4.5 4.6-4.6 10.9-.1 21.8 0 32.8 0 1.6-.1 3.2-.1 4.7 0zm-15.3 162.4h22.4c2.7 0 5 .6 5.1 3.9.1 2.6-1.6 4-5 4h-45.1c-3.6 0-5.5-1.9-4.9-4.7.5-2.4 2.2-3.1 4.5-3.1 7.6-.1 15.3-.1 23-.1zm-3.5 25.6h19c2.6 0 4.5.8 4.6 3.6.2 3-1.7 4.2-4.4 4.2-13 .1-26 0-39 0-2.6 0-4.4-1.4-4.3-4.1.1-2.7 1.8-3.8 4.5-3.8 6.5.1 13 .1 19.6.1z"/><path class="st0" d="M83.8 271.3c4.9-6.8 9.6-13.4 14.3-20 .6-.8 1.1-1.7 1.8-2.4 1.5-1.7 3.4-2.2 5.3-.8 1.9 1.4 2.2 3.5 1 5.3-6.1 8.7-12.2 17.3-18.4 25.8-1.4 1.9-3.4 2.1-5.4.8-4.5-2.9-8.9-5.9-13.3-8.9-2-1.4-2.6-3.4-1.2-5.5 1.4-2.1 3.5-2.4 5.5-1.1 3.4 2.1 6.7 4.4 10.4 6.8zm.7-173.4c4.8-6.8 9.6-13.4 14.3-19.9 2.8-3.9 4.9-4.9 7.2-3.4 2.3 1.6 2.1 4-.8 8.1-5.2 7.1-10.3 14.3-15.4 21.4-2.8 4-4.1 4.2-8.2 1.4-3.7-2.5-7.4-5-11.1-7.4-2.2-1.5-3.4-3.3-1.9-5.9 1.3-2.3 3.5-2.6 6.3-.8 3.1 2.2 6.2 4.3 9.6 6.5z"/></svg>