<svg id="Layer_1" xmlns="http://www.w3.org/2000/svg" viewBox="0 0 360 360"><style>.st0{fill:#2d3973}</style><path class="st0" d="M126.8 180v-38.6h21.5c0-2.4-.1-4.3 0-6.2.3-9.7-.1-19.6 1.1-29.2 2.5-20.5 16.1-33.8 36.6-35.2 13.6-.9 27.3-.2 41.3-.2v36.7h-19.4c-11.6 0-14.1 2.4-14.2 13.8V141h34.8c-1.3 12.5-2.4 24.2-3.9 36-.1 1.1-2.7 2.6-4.1 2.7-8.7.3-17.4.1-26.7.1v109.7h-45.4V180h-21.6z"/><path class="st0" d="M179.5 358c-97.9 0-178.1-79.8-178-177.5C1.5 81.9 81.1 2 179.5 2c98.2 0 178 79.8 178 178 0 98.1-79.8 178-178 178zM333 180c0-84.6-68.6-153.4-153.2-153.6C94.9 26.3 26 95.2 26 180c0 84.6 68.7 153.5 153.2 153.6 84.9 0 153.8-68.8 153.8-153.6z"/></svg>