<svg id="Layer_1" xmlns="http://www.w3.org/2000/svg" viewBox="0 0 360 360"><style>.st0{fill:#2d3973}</style><path class="st0" d="M10.5 281.1V79.9c1.8-3.5 3-7.7 5.7-10.3 3-2.9 7.5-4.5 11.3-6.6h306.8c.3.2.5.5.8.6 11.2 3.6 15.4 9.4 15.4 21.2v191.9c.1 13.3-7.9 21.3-21.2 21.3H30.4c-9.7 0-16.7-5.6-19.2-15-.1-.7-.4-1.3-.7-1.9zM328.4 77.3c-.3-.4-.7-.8-1-1.1H33.9c-.2.3-.4.7-.7 1 .9.6 2 1.1 2.8 1.9 40.4 38.6 80.6 77.3 121 115.9 14.3 13.7 33.2 13.4 47.6-.3 40.3-38.5 80.6-77.1 120.9-115.6.7-.9 1.9-1.3 2.9-1.8zM33 285.1h295.2c-33.6-32.2-66.6-63.8-99.9-95.6-5.7 5.4-11.1 10.7-16.6 15.8-17.7 16.5-44.6 16.5-62.3.1-3.6-3.4-7.2-6.9-10.8-10.3-1.9-1.8-3.9-3.6-5.9-5.5-33.1 31.7-66.1 63.3-99.7 95.5zM23.6 84.8v191.8c33.7-32.3 66.8-64 100.1-95.9C90.3 148.6 57.3 117 23.6 84.8zm314 191.6V84.8c-33.6 32.2-66.7 63.9-100 95.8 33.3 32 66.4 63.7 100 95.8z"/></svg>