<svg xmlns="http://www.w3.org/2000/svg" width="443.025" height="216.246" viewBox="418.823 572.474 443.025 216.246"><path d="M503.754 702.221c27.339 0 49.299-21.063 49.299-48.402 0-27.34-21.064-49.3-48.403-49.3s-49.3 21.063-49.3 48.403c-.896 27.562 21.737 49.299 48.404 49.299zm273.389 0c27.339 0 49.3-21.063 49.3-48.402 0-27.34-21.064-49.3-48.403-49.3s-49.3 21.063-49.3 48.403c-.001 27.562 21.064 49.299 48.403 49.299z"/><circle cx="638.432" cy="630.513" r="58.039"/><path d="M768.18 715.219c-19.272 0-37.871 5.602-53.334 16.134-20.168-18.599-47.507-29.804-75.742-29.804s-54.902 10.532-75.07 28.235c-15.237-8.964-33.165-15.238-51.54-15.238-45.267 0-83.81 30.7-93.67 74.174h443.024c-9.635-43.026-48.403-73.501-93.668-73.501z"/></svg>