<svg id="Layer_1" xmlns="http://www.w3.org/2000/svg" viewBox="0 0 360 360"><style>.st0{fill:#2d3973}</style><path class="st0" d="M176.5 146.5v-10.2c-.1-18.5 8.5-32.2 24.8-40.1 16.5-8 32.9-6.2 47.3 5.4 4.1 3.3 7.6 4.1 12.2 2.2 6.5-2.6 13-5 20-7.6-2.8 9.1-8.7 15.9-15.9 21.8.2.4.4.8.7 1.2 6.8-1.7 13.5-3.5 20.3-5.2.3.3.6.6.9.8-5.2 5.2-10.1 10.7-15.6 15.5-4.1 3.6-5.8 7.3-5.8 12.8-.5 56-41.2 115.8-109.2 124-27.3 3.3-53.1-.9-77.4-13.9-1.7-.9-3.4-1.9-4.9-2.7 10.7-1.7 21.6-2.8 32.1-5.3s20-7.7 29.7-15.3c-20-2.4-33.6-11.7-40.9-30 5.9-.4 11.3-.7 16.8-1.1-20-8.4-31.5-22.3-33-44.1 6.2 1.6 11.8 3.1 17.5 4.6.3-.4.5-.8.8-1.2-11.1-9.1-17.3-20.7-17.9-34.9-.3-7.9 1.5-15.5 5.9-23.1 11.9 13.3 25.1 24.6 40.8 32.5 15.8 8.2 32.5 12.6 50.8 13.9z"/><path class="st0" d="M179.5 358c-97.9 0-178.1-79.8-178-177.5C1.5 81.9 81.1 2 179.5 2c98.2 0 178 79.8 178 178 0 98.1-79.8 178-178 178zM333 180c0-84.6-68.6-153.4-153.2-153.6C94.9 26.3 26 95.2 26 180c0 84.6 68.7 153.5 153.2 153.6 84.9 0 153.8-68.8 153.8-153.6z"/></svg>