<svg id="Layer_1" xmlns="http://www.w3.org/2000/svg" viewBox="0 0 360 360"><style>.st0{fill:#2d3973}.st1{fill:#fff}</style><path class="st0" d="M272.8 180v57.5c-.1 22.4-13.1 35.3-35.5 35.4H123.9c-22.8 0-35.7-12.9-35.7-35.6V122.9c0-22.7 13-35.6 35.7-35.6h113.4c22.4 0 35.4 13 35.5 35.3.1 19.1 0 38.2 0 57.4zm-49.2-19.9c3.5 16.1 5.3 31.3-4 45.2-9.1 13.7-22.3 20.8-38.8 21-13.3.2-24.7-4.8-34-14.3-14.6-14.9-14.1-32.8-9.4-51.6h-30.1c-.2.9-.4 1.4-.4 1.9 0 25.8-.1 51.7.1 77.5.1 9.6 5.4 14.3 15.5 14.3 38.7.1 77.3.1 116 0 10.6 0 15.6-5 15.7-15.7.1-10.8 0-21.7 0-32.5v-41c0-2.3.5-4.9-3.2-4.9-8.9.2-17.7.1-27.4.1zm-42.6-.2c-4.8 0-9.7.1-14.5 0-4.8-.1-8.1 2.1-10.5 6.2-6.5 11.6-3.7 26.6 6.7 35.2 10.5 8.7 25.5 8.5 35.8-.3 10.3-8.8 12.9-23.9 6.2-35.4-2.2-3.8-5.2-5.9-9.7-5.8-4.6.2-9.3.1-14 .1zm35.6-46.7c0 8.9-.1 17.4.1 25.8 0 1 1.6 2.7 2.4 2.8 8.3.2 16.5.1 24.9.1v-28.7h-27.4z"/><path class="st0" d="M179.5 358c-97.9 0-178.1-79.8-178-177.5C1.5 81.9 81.1 2 179.5 2c98.2 0 178 79.8 178 178 0 98.1-79.8 178-178 178zM333 180c0-84.6-68.6-153.4-153.2-153.6C94.9 26.3 26 95.2 26 180c0 84.6 68.7 153.5 153.2 153.6 84.9 0 153.8-68.8 153.8-153.6z"/><path class="st0" d="M98.5 150.5H262v10.9H98.5z"/></svg>