<svg xmlns="http://www.w3.org/2000/svg" width="268.685" height="447.285" viewBox="468.479 126.516 268.685 447.285"><path d="M563.493 394.078c0-83.137 117.871-90.308 117.871-158.879 0-32.27-25.771-60.505-76.639-60.505-49.3 0-79.776 21.737-103.978 53.334l-32.27-35.406c31.373-40.336 79.776-66.106 141.177-66.106 79.776 0 127.507 45.266 127.507 100.84C737.61 325.507 611 334.471 611 398.112c0 10.532 6.499 23.305 17.703 32.269l-40.336 16.135c-16.806-14.567-24.874-33.165-24.874-52.438zm3.137 144.315c0-19.271 16.135-35.406 35.406-35.406 19.272 0 35.406 16.135 35.406 35.406s-16.134 35.406-35.406 35.406c-19.271.223-35.406-15.911-35.406-35.406z"/></svg>