<svg xmlns="http://www.w3.org/2000/svg" viewBox="0 0 612 612" width="512" height="512"><path d="M484.704 247.248c.813-4.896-.408-9.588-3.672-14.076-3.267-4.08-7.548-6.528-12.854-7.344l-246.636-27.54-3.06-29.988c-.408-3.672-1.836-7.038-4.284-10.098s-5.304-4.998-8.568-5.814l-54.468-17.136c-4.896-1.632-9.588-1.224-14.076 1.224s-7.548 6.12-9.18 11.016c-1.632 4.896-1.224 9.588 1.224 14.076 2.448 4.488 6.12 7.548 11.016 9.18l42.228 13.464 15.3 150.552-9.792 53.856c-.408 2.448-.306 4.998.306 7.647.612 2.652 1.938 4.998 3.978 7.038 3.672 4.488 8.364 6.732 14.076 6.732h230.111c5.305 0 9.793-1.734 13.465-5.202s5.508-7.854 5.508-13.158-1.836-9.688-5.508-13.156c-3.672-3.47-8.16-5.201-13.465-5.201h-208.08l4.284-24.48h219.096c4.485 0 8.361-1.428 11.628-4.284 3.264-2.854 5.304-6.525 6.12-11.016l15.303-86.292zm-82.008 230.724c8.16 0 14.994-2.754 20.502-8.262s8.262-12.342 8.262-20.502-2.754-14.994-8.262-20.502-12.342-8.262-20.502-8.262-14.895 2.754-20.196 8.262-7.956 12.342-7.956 20.502 2.652 14.994 7.956 20.502 12.036 8.262 20.196 8.262zm-168.3 0c8.16 0 14.994-2.754 20.502-8.262 5.508-5.508 8.262-12.342 8.262-20.502s-2.754-14.994-8.262-20.502-12.342-8.262-20.502-8.262-14.994 2.754-20.502 8.262-8.262 12.342-8.262 20.502 2.754 14.994 8.262 20.502 12.342 8.262 20.502 8.262zM306 0c42.024 0 81.702 8.058 119.034 24.174s69.768 37.944 97.308 65.484 49.368 59.976 65.484 97.308S612 263.976 612 306c0 28.152-3.672 55.284-11.016 81.396-7.347 26.109-17.646 50.487-30.906 73.134a305.087 305.087 0 0 1-47.736 61.812 304.924 304.924 0 0 1-61.812 47.736c-22.646 13.26-47.022 23.562-73.136 30.906C361.284 608.328 334.152 612 306 612s-55.284-3.672-81.396-11.016c-26.112-7.347-50.49-17.646-73.134-30.906s-43.248-29.172-61.812-47.736a305.032 305.032 0 0 1-47.736-61.812c-13.26-22.646-23.562-47.022-30.906-73.135C3.672 361.284 0 334.152 0 306s3.672-55.284 11.016-81.396 17.646-50.49 30.906-73.134 29.172-43.248 47.736-61.812 39.168-34.476 61.812-47.736 47.022-23.562 73.134-30.906S277.848 0 306 0z" fill="#3e3e3e"/></svg>