<svg viewBox="0 0 64 64" xmlns="http://www.w3.org/2000/svg"><path d="M32 0C14.327 0 0 14.327 0 32c0 17.673 14.327 32 32 32s32-14.327 32-32C64 14.327 49.673 0 32 0z" fill="#333"/><path d="M32.243 48.835a4.69 4.69 0 0 1-.291-.008 2.924 2.924 0 0 1-.189.008c-2.251 0-3.698-1.021-5.095-2.009-.966-.682-1.876-1.326-2.948-1.503a9.375 9.375 0 0 0-1.548-.13c-.907 0-1.624.141-2.145.242-.318.063-.591.116-.801.116-.218 0-.452-.047-.556-.397-.09-.304-.153-.597-.216-.88-.159-.731-.273-1.182-.579-1.228-3.571-.552-4.594-1.304-4.822-1.838a.655.655 0 0 1-.055-.228.403.403 0 0 1 .336-.42c5.49-.905 7.951-6.515 8.053-6.753.002-.006.006-.012.008-.02.336-.68.401-1.271.196-1.756-.377-.888-1.605-1.277-2.418-1.536a8.482 8.482 0 0 1-.536-.181c-1.624-.642-1.758-1.3-1.695-1.636.108-.572.874-.97 1.491-.97.169 0 .318.031.444.09.729.342 1.387.515 1.956.515.784 0 1.127-.33 1.169-.373-.02-.371-.045-.76-.069-1.159-.163-2.595-.367-5.82.454-7.662 2.461-5.519 7.68-5.947 9.22-5.947l.676-.006h.092c1.544 0 6.774.43 9.237 5.951.821 1.842.617 5.069.454 7.662l-.006.112c-.022.361-.045.713-.063 1.049.039.041.354.342 1.065.371.54-.02 1.161-.194 1.844-.511.2-.094.422-.112.572-.112.23 0 .464.045.658.126l.012.004c.552.196.913.583.921.986.008.381-.283.951-1.707 1.514a9.422 9.422 0 0 1-.536.181c-.815.259-2.043.648-2.418 1.536-.206.485-.141 1.076.196 1.756.002.006.006.012.008.02.102.238 2.561 5.847 8.053 6.751a.4.4 0 0 1 .336.42.618.618 0 0 1-.057.23c-.226.53-1.249 1.281-4.82 1.833-.291.045-.405.426-.579 1.222-.063.289-.128.574-.216.876-.075.261-.238.381-.511.381h-.045c-.189 0-.458-.035-.799-.1a10.684 10.684 0 0 0-2.145-.228c-.503 0-1.025.045-1.548.13-1.072.179-1.982.821-2.946 1.501-1.394.985-2.84 2.008-5.092 2.008z" fill="#FFF"/></svg>