<svg version="1.1" id="Layer_1" xmlns="http://www.w3.org/2000/svg" width="313" height="186" xmlns:xlink="http://www.w3.org/1999/xlink" x="0px" y="0px" viewBox="0 0 360 360" preserveAspectRatio="xMidYMid meet" xml:space="preserve">
  <style type="text/css">
    .st0 {
      fill: #2D3973;
    }
  </style>
  <g>
    <path
      class="st0"
      d="M10.5,281.1c0-67.1,0-134.1,0-201.2c1.8-3.5,3-7.7,5.7-10.3c3-2.9,7.5-4.5,11.3-6.6c102.3,0,204.5,0,306.8,0
      c0.3,0.2,0.5,0.5,0.8,0.6c11.2,3.6,15.4,9.4,15.4,21.2c0,60.1,0,120.3,0,180.4c0,3.8,0,7.7,0,11.5c0.1,13.3-7.9,21.3-21.2,21.3
      c-66.5,0-132.9,0-199.4,0c-33.2,0-66.4,0-99.5,0c-9.7,0-16.7-5.6-19.2-15C11.1,282.3,10.8,281.7,10.5,281.1z M328.4,77.3
      c-0.3-0.4-0.7-0.8-1-1.1c-97.8,0-195.7,0-293.5,0c-0.2,0.3-0.4,0.7-0.7,1c0.9,0.6,2,1.1,2.8,1.9c40.4,38.6,80.6,77.3,121,115.9
      c14.3,13.7,33.2,13.4,47.6-0.3c40.3-38.5,80.6-77.1,120.9-115.6C326.2,78.2,327.4,77.8,328.4,77.3z M33,285.1
      c98.8,0,196.6,0,295.2,0c-33.6-32.2-66.6-63.8-99.9-95.6c-5.7,5.4-11.1,10.7-16.6,15.8c-17.7,16.5-44.6,16.5-62.3,0.1
      c-3.6-3.4-7.2-6.9-10.8-10.3c-1.9-1.8-3.9-3.6-5.9-5.5C99.6,221.3,66.6,252.9,33,285.1z M23.6,84.8c0,64.3,0,127.6,0,191.8
      c33.7-32.3,66.8-64,100.1-95.9C90.3,148.6,57.3,117,23.6,84.8z M337.6,276.4c0-64.2,0-127.5,0-191.6c-33.6,32.2-66.7,63.9-100,95.8
      C270.9,212.6,304,244.3,337.6,276.4z"/>
  </g>
</svg>
