<?xml version="1.0" encoding="utf-8"?>
<!-- Generator: Adobe Illustrator 19.1.0, SVG Export Plug-In . SVG Version: 6.00 Build 0)  -->
<svg version="1.1" id="Layer_1" xmlns="http://www.w3.org/2000/svg" xmlns:xlink="http://www.w3.org/1999/xlink" x="0px" y="0px"
	 viewBox="0 0 360 360" style="enable-background:new 0 0 360 360;" xml:space="preserve">
<style type="text/css">
	.st0{fill:#2D3973;}
	.st1{fill:#FFFFFF;}
</style>
<path class="st0" d="M272.8,180c0,19.2,0,38.3,0,57.5c-0.1,22.4-13.1,35.3-35.5,35.4c-37.8,0-75.6,0-113.4,0
	c-22.8,0-35.7-12.9-35.7-35.6c0-38.1,0-76.3,0-114.4c0-22.7,13-35.6,35.7-35.6c37.8,0,75.6,0,113.4,0c22.4,0,35.4,13,35.5,35.3
	C272.9,141.7,272.8,160.8,272.8,180z M223.6,160.1c3.5,16.1,5.3,31.3-4,45.2c-9.1,13.7-22.3,20.8-38.8,21
	c-13.3,0.2-24.7-4.8-34-14.3c-14.6-14.9-14.1-32.8-9.4-51.6c-10.5,0-20.3,0-30.1,0c-0.2,0.9-0.4,1.4-0.4,1.9
	c0,25.8-0.1,51.7,0.1,77.5c0.1,9.6,5.4,14.3,15.5,14.3c38.7,0.1,77.3,0.1,116,0c10.6,0,15.6-5,15.7-15.7c0.1-10.8,0-21.7,0-32.5
	c0-13.7,0-27.3,0-41c0-2.3,0.5-4.9-3.2-4.9C242.1,160.2,233.3,160.1,223.6,160.1z M181,159.9c-4.8,0-9.7,0.1-14.5,0
	c-4.8-0.1-8.1,2.1-10.5,6.2c-6.5,11.6-3.7,26.6,6.7,35.2c10.5,8.7,25.5,8.5,35.8-0.3c10.3-8.8,12.9-23.9,6.2-35.4
	c-2.2-3.8-5.2-5.9-9.7-5.8C190.4,160,185.7,159.9,181,159.9z M216.6,113.2c0,8.9-0.1,17.4,0.1,25.8c0,1,1.6,2.7,2.4,2.8
	c8.3,0.2,16.5,0.1,24.9,0.1c0-10,0-19.2,0-28.7C234.9,113.2,226.2,113.2,216.6,113.2z"/>
<path class="st0" d="M179.5,358c-97.9,0-178.1-79.8-178-177.5C1.5,81.9,81.1,2,179.5,2c98.2,0,178,79.8,178,178
	C357.5,278.1,277.7,358,179.5,358z M333,180c0-84.6-68.6-153.4-153.2-153.6C94.9,26.3,26,95.2,26,180c0,84.6,68.7,153.5,153.2,153.6
	C264.1,333.6,333,264.8,333,180z"/>
<rect x="98.5" y="150.5" class="st0" width="163.5" height="10.9"/>
</svg>
