<?xml version="1.0" encoding="utf-8"?>
<!-- Generator: Adobe Illustrator 19.1.0, SVG Export Plug-In . SVG Version: 6.00 Build 0)  -->
<svg version="1.1" id="Layer_1" xmlns="http://www.w3.org/2000/svg" xmlns:xlink="http://www.w3.org/1999/xlink" x="0px" y="0px"
	 viewBox="0 0 360 360" style="enable-background:new 0 0 360 360;" xml:space="preserve">
<style type="text/css">
	.st0{
    fill:#2D3973;
    stroke-width: 5;
    stroke-color:#2D3973;
  }
</style>
<path class="st0" d="M352,131c-3.9,7.7-7.6,15.5-11.7,23.1c-20.8,38.1-41.8,76.2-62.6,114.4c-0.7,1.3-0.8,3-0.8,4.5
	c-0.2,12.9,0.2,25.9-0.5,38.7c-0.9,15.7-15.4,29.6-31.2,29.8c-24.3,0.4-48.5,0.2-72.8,0.2c-41.6,0-83.3,0-124.9,0
	c-20.3,0-31.8-8.7-37.2-28.4c-0.1-0.2-0.3-0.3-0.4-0.5c0-87.8,0-175.6,0-263.4c0.6-1.9,1.2-3.7,1.8-5.6C15.3,32,27.7,20.5,45.7,20.6
	c64.8,0.3,129.6,0.1,194.5,0.1c3.9,0,7.8,0.3,11.5,1.3c15.3,4.2,25,17.4,25.1,34.2c0.1,27.4,0,54.8,0,82.2c0,1.3,0,2.5,0,3.8
	c1.4-1,2.1-2.1,2.7-3.2c5.5-10,10.9-20.1,16.6-30.1c6.1-10.8,18.7-14.4,29.6-8.6c3.3,1.8,6.5,3.9,10,5.4c8.2,3.7,14,9.3,16.3,18.1
	C352,126.1,352,128.6,352,131z M268.9,277c-1.2,0.9-1.9,1.4-2.5,1.9c-10.2,8.7-20.3,17.4-30.5,26.1c-5.1,4.3-8.5,4.7-14.3,1.4
	c-5.3-3-6.8-6.4-5.9-12.8c2-13.6,4-27.3,5.8-40.9c1-7.5,2.9-14.4,6.7-21.1c13.2-23.3,26-46.9,38.8-70.4c1.1-1.9,1.7-4.4,1.7-6.6
	c0.1-32.6,0.1-65.3,0-97.9c0-2.8-0.2-5.6-0.9-8.3c-3.3-12.4-13.1-19.8-26.3-19.9c-26.3-0.1-52.6,0-78.9,0c-39.2,0-78.4,0-117.7,0.1
	c-3.1,0-6.3,0.3-9.2,1.2C24.9,33.2,17.7,43.1,17.7,55c0,84,0,168,0,252c0,1.9,0.1,3.8,0.4,5.6c2.8,13.2,13.3,21.2,27.3,21.2
	c46.3,0,92.7,0,139,0c19.1,0,38.1,0.1,57.2,0c16.1-0.1,27.3-11.3,27.4-27.3c0.1-7.2,0-14.5,0-21.7C268.9,282.4,268.9,280,268.9,277z
	 M273.2,260c17.3-31.4,34.3-62.5,51.4-93.6c-13.3-7.3-26.2-14.4-39.2-21.6c-17.2,31.4-34.3,62.4-51.4,93.6
	C247.2,245.7,260,252.8,273.2,260z M268.8,266.6c-12.9-7.1-25.2-13.9-38-20.8c-2.1,14.9-4.2,29.1-6.1,43.3c-0.1,0.5,0.1,1.5,0.5,1.7
	c2.8,1.6,5.6,3.3,8.5,4.6c0.6,0.3,1.9-0.3,2.6-0.9c2.9-2.3,5.6-4.7,8.4-7.1C252.5,280.5,260.4,273.7,268.8,266.6z M339.9,138
	c6.9-9.9,5-18.3-5.1-23.8c-3.8-2.1-7.6-4.2-11.4-6.3c-9.5-5.3-18.6-1.8-22.2,8.9C314.2,123.8,327.1,130.9,339.9,138z M328.4,159.4
	c2.7-5,5.2-9.5,7.9-14.4c-13.2-7.2-26.1-14.3-39.2-21.6c-2.7,4.9-5.2,9.5-7.9,14.4C302.4,145.1,315.3,152.2,328.4,159.4z"/>
<path class="st0" d="M121.4,266c0,9.8,0,19.6,0,29.4c0,3.9-1.1,5.1-4.9,5.1c-19.7,0-39.4,0-59.1,0c-3.8,0-5-1.2-5-5
	c0-19.8,0-39.6,0-59.4c0-3.4,1.3-4.7,4.6-4.7c19.9,0,39.8,0,59.8,0c3.4,0,4.6,1.3,4.6,4.7C121.4,246,121.4,256,121.4,266z
	 M60.5,292.5c17.8,0,35.2,0,52.8,0c0-17.8,0-35.4,0-53.1c-17.7,0-35.1,0-52.8,0C60.5,257.1,60.5,274.6,60.5,292.5z"/>
<path class="st0" d="M53.2,179.8c0-9.8,0-19.6,0-29.4c0-3.7,1.2-5,5-5c19.6-0.1,39.2-0.1,58.8,0c4,0,5.3,1.3,5.3,5.2
	c0,19.6,0,39.2,0,58.8c0,4-1.3,5.2-5.2,5.2c-19.5,0-39,0-58.5,0c-4.2,0-5.3-1.1-5.3-5.3C53.2,199.4,53.2,189.6,53.2,179.8
	C53.2,179.8,53.2,179.8,53.2,179.8z M114.2,206.4c0-17.8,0-35.4,0-53.1c-17.8,0-35.3,0-52.9,0c0,17.8,0,35.3,0,53.1
	C78.9,206.4,96.5,206.4,114.2,206.4z"/>
<path class="st0" d="M87.6,127.1c-9.7,0-19.4,0-29.1,0c-4.3,0-5.4-1-5.4-5.2c0-19.6,0-39.2,0-58.8c0-4,1.1-5.1,5.2-5.1
	c19.5,0,39,0,58.4,0c4.4,0,5.4,1,5.4,5.3c0,19.6,0,39.2,0,58.8c0,4-1.2,5.1-5.2,5.1C107.2,127.1,97.4,127.1,87.6,127.1z M114.1,119
	c0.1-0.8,0.3-1.2,0.3-1.6c0-16.4,0-32.7,0.1-49.1c0-2.5-1.4-2.6-3.2-2.6c-15.8,0-31.6,0-47.4,0c-0.9,0-1.7,0.2-2.6,0.3
	c0,17.7,0,35.3,0,52.9C79,119,96.4,119,114.1,119z"/>
<path class="st0" d="M192.9,157.8c12.3,0,24.7,0,37,0c3.6,0,5.7,2.3,4.8,5.1c-0.8,2.4-2.8,2.9-5.1,2.9c-14.5,0-28.9,0-43.4,0
	c-10.2,0-20.5,0-30.7,0c-3.5,0-5.4-1.9-4.8-4.8c0.6-2.7,2.7-3.2,5.1-3.2C168.2,157.8,180.6,157.8,192.9,157.8
	C192.9,157.8,192.9,157.8,192.9,157.8z"/>
<path class="st0" d="M192.7,191.2c-12.1,0-24.3,0-36.4,0c-4,0-5.7-1.2-5.6-4c0-2.7,1.8-3.9,5.8-3.9c24.4,0,48.7,0,73.1,0
	c3.5,0,5.4,1.5,5.4,4c0,2.5-1.9,3.9-5.5,3.9C217.2,191.2,204.9,191.2,192.7,191.2C192.7,191.2,192.7,191.2,192.7,191.2z"/>
<path class="st0" d="M192.8,99.5c11.7,0,23.4,0,35,0c1.2,0,2.7-0.4,3.6,0.2c1.4,0.8,3,2.1,3.3,3.4c0.2,1.1-1.2,2.8-2.4,3.8
	c-0.7,0.6-2.1,0.5-3.2,0.5c-24.2,0-48.5,0-72.7,0c-0.7,0-1.3,0.1-2-0.1c-2.4-0.4-3.9-1.7-3.7-4.3c0.2-2.4,1.7-3.5,4-3.5
	c6.8,0,13.6,0,20.4,0C181,99.5,186.9,99.5,192.8,99.5z"/>
<path class="st0" d="M192.8,74.1c12.3,0,24.5,0,36.8,0c3.6,0,5.6,1.5,5.3,4c-0.3,3.1-2.5,3.9-5.3,3.9c-24.5,0-49,0-73.5,0
	c-2.5,0-4.8-0.2-5.4-3.3c-0.5-2.8,1.2-4.5,4.6-4.6c10.9-0.1,21.8,0,32.8,0C189.7,74,191.3,74,192.8,74.1
	C192.8,74.1,192.8,74.1,192.8,74.1z"/>
<path class="st0" d="M177.5,236.5c7.5,0,14.9,0,22.4,0c2.7,0,5,0.6,5.1,3.9c0.1,2.6-1.6,4-5,4c-15,0-30.1,0-45.1,0
	c-3.6,0-5.5-1.9-4.9-4.7c0.5-2.4,2.2-3.1,4.5-3.1C162.1,236.5,169.8,236.5,177.5,236.5C177.5,236.5,177.5,236.5,177.5,236.5z"/>
<path class="st0" d="M174,262.1c6.3,0,12.7,0,19,0c2.6,0,4.5,0.8,4.6,3.6c0.2,3-1.7,4.2-4.4,4.2c-13,0.1-26,0-39,0
	c-2.6,0-4.4-1.4-4.3-4.1c0.1-2.7,1.8-3.8,4.5-3.8C160.9,262.1,167.4,262.1,174,262.1z"/>
<path class="st0" d="M83.8,271.3c4.9-6.8,9.6-13.4,14.3-20c0.6-0.8,1.1-1.7,1.8-2.4c1.5-1.7,3.4-2.2,5.3-0.8c1.9,1.4,2.2,3.5,1,5.3
	c-6.1,8.7-12.2,17.3-18.4,25.8c-1.4,1.9-3.4,2.1-5.4,0.8c-4.5-2.9-8.9-5.9-13.3-8.9c-2-1.4-2.6-3.4-1.2-5.5c1.4-2.1,3.5-2.4,5.5-1.1
	C76.8,266.6,80.1,268.9,83.8,271.3z"/>
<path class="st0" d="M84.5,97.9c4.8-6.8,9.6-13.4,14.3-19.9c2.8-3.9,4.9-4.9,7.2-3.4c2.3,1.6,2.1,4-0.8,8.1
	C100,89.8,94.9,97,89.8,104.1c-2.8,4-4.1,4.2-8.2,1.4c-3.7-2.5-7.4-5-11.1-7.4c-2.2-1.5-3.4-3.3-1.9-5.9c1.3-2.3,3.5-2.6,6.3-0.8
	C78,93.6,81.1,95.7,84.5,97.9z"/>
</svg>
