<?xml version="1.0" encoding="iso-8859-1"?>
<!-- Generator: Adobe Illustrator 18.1.1, SVG Export Plug-In . SVG Version: 6.00 Build 0)  -->
<svg xmlns="http://www.w3.org/2000/svg" xmlns:xlink="http://www.w3.org/1999/xlink" version="1.1" id="Capa_1" x="0px" y="0px" viewBox="0 0 33.837 33.837" style="enable-background:new 0 0 33.837 33.837;" xml:space="preserve" width="512px" height="512px">
<g>
	<path d="M28.843,19.954c-0.615-1.368-3.826-2.585-4.932-2.97c-1.719-3.763-0.787-8.514-0.787-8.514   c-0.309,1.35-0.693,1.868-0.693,1.868c-0.305,2.443-2.291,4.453-2.291,4.453c-0.037,0.656,0.045,1.213,0.201,1.688   c-3.074,4.97-5.59,2.371-6.832,0.342c0.238-0.546,0.381-1.21,0.338-2.031c0,0-1.992-2.01-2.295-4.453c0,0-0.137-0.188-0.311-0.616   c0.123-0.063,0.252-0.18,0.387-0.379c0,0,0.77,3.383,5.732,4.944c0,0-0.188,0.315,0.248,0.474h1.266c0,0,0.707,0.039,0.707-0.538   c0.006-0.17-0.018-0.647-0.59-0.647l-1.613,0.02c0,0-2.928-0.119-5.533-4.443c0,0-0.277-0.647-0.447-1.321   c5.84,0.332,8.898-2.345,8.99-2.429c0.084,0.315,0.592,1.929,2.293,2.657c0,0,0.064-0.663,0.25-0.725c0,0,0.207,0.104,0.27,0.352   c0,0,0.443-4.242-1.486-5.827l0.008-0.023c-4.031-3.557-8.596-0.851-8.596-0.851c-2.531,1.631-2.611,4.687-2.5,6.078   c-0.419-0.061-0.86,0.072-0.745,1.006c0,0,0.467,1.696,1.148,1.704c0.152,1.668,0.201,4.651-0.951,7.193   c-1.326,0.568-2.656,0.971-2.656,0.971c-1.436,0.552-2.045,1.382-2.045,1.382C3.251,22.469,2.999,29.49,2.999,29.49   c0.029,1.603,0.717,1.769,0.717,1.769c4.896,2.183,12.564,2.57,12.564,2.57c7.879,0.166,13.611-2.24,13.611-2.24   c0.832-0.526,0.861-0.938,0.861-0.938C31.329,25.619,28.843,19.954,28.843,19.954z" fill="#2d2d2d"/>
	<g>
	</g>
	<g>
	</g>
	<g>
	</g>
	<g>
	</g>
	<g>
	</g>
	<g>
	</g>
	<g>
	</g>
	<g>
	</g>
	<g>
	</g>
	<g>
	</g>
	<g>
	</g>
	<g>
	</g>
	<g>
	</g>
	<g>
	</g>
	<g>
	</g>
</g>
<g>
</g>
<g>
</g>
<g>
</g>
<g>
</g>
<g>
</g>
<g>
</g>
<g>
</g>
<g>
</g>
<g>
</g>
<g>
</g>
<g>
</g>
<g>
</g>
<g>
</g>
<g>
</g>
<g>
</g>
</svg>
