<?xml version="1.0" encoding="utf-8"?>
<!-- Generator: Adobe Illustrator 19.1.0, SVG Export Plug-In . SVG Version: 6.00 Build 0)  -->
<svg version="1.1" id="Layer_1" xmlns="http://www.w3.org/2000/svg" xmlns:xlink="http://www.w3.org/1999/xlink" x="0px" y="0px"
	 viewBox="0 0 360 360" style="enable-background:new 0 0 360 360;" xml:space="preserve">
<style type="text/css">
	.st0{fill:#2D3973;}
</style>
<path class="st0" d="M176.5,146.5c0-3.9,0-7,0-10.2c-0.1-18.5,8.5-32.2,24.8-40.1c16.5-8,32.9-6.2,47.3,5.4
	c4.1,3.3,7.6,4.1,12.2,2.2c6.5-2.6,13-5,20-7.6c-2.8,9.1-8.7,15.9-15.9,21.8c0.2,0.4,0.4,0.8,0.7,1.2c6.8-1.7,13.5-3.5,20.3-5.2
	c0.3,0.3,0.6,0.6,0.9,0.8c-5.2,5.2-10.1,10.7-15.6,15.5c-4.1,3.6-5.8,7.3-5.8,12.8c-0.5,56-41.2,115.8-109.2,124
	c-27.3,3.3-53.1-0.9-77.4-13.9c-1.7-0.9-3.4-1.9-4.9-2.7c10.7-1.7,21.6-2.8,32.1-5.3c10.5-2.5,20-7.7,29.7-15.3
	c-20-2.4-33.6-11.7-40.9-30c5.9-0.4,11.3-0.7,16.8-1.1c-20-8.4-31.5-22.3-33-44.1c6.2,1.6,11.8,3.1,17.5,4.6
	c0.3-0.4,0.5-0.8,0.8-1.2c-11.1-9.1-17.3-20.7-17.9-34.9c-0.3-7.9,1.5-15.5,5.9-23.1c11.9,13.3,25.1,24.6,40.8,32.5
	C141.5,140.8,158.2,145.2,176.5,146.5z"/>
<path class="st0" d="M179.5,358c-97.9,0-178.1-79.8-178-177.5C1.5,81.9,81.1,2,179.5,2c98.2,0,178,79.8,178,178
	C357.5,278.1,277.7,358,179.5,358z M333,180c0-84.6-68.6-153.4-153.2-153.6C94.9,26.3,26,95.2,26,180c0,84.6,68.7,153.5,153.2,153.6
	C264.1,333.6,333,264.8,333,180z"/>
</svg>
