<?xml version="1.0" encoding="utf-8"?>
<!-- Generator: Adobe Illustrator 16.0.0, SVG Export Plug-In . SVG Version: 6.00 Build 0)  -->
<!DOCTYPE svg PUBLIC "-//W3C//DTD SVG 1.1//EN" "http://www.w3.org/Graphics/SVG/1.1/DTD/svg11.dtd">
<svg version="1.1" id="icon_question" xmlns="http://www.w3.org/2000/svg" xmlns:xlink="http://www.w3.org/1999/xlink" x="0px"
	 y="0px" width="268.685px" height="447.285px" viewBox="468.479 126.516 268.685 447.285"
	 enable-background="new 468.479 126.516 268.685 447.285" xml:space="preserve">
<g>
	<path d="M563.493,394.078c0-83.137,117.871-90.308,117.871-158.879c0-32.27-25.771-60.505-76.639-60.505
		c-49.3,0-79.776,21.737-103.978,53.334l-32.27-35.406c31.373-40.336,79.776-66.106,141.177-66.106
		c79.776,0,127.507,45.266,127.507,100.84C737.61,325.507,611,334.471,611,398.112c0,10.532,6.499,23.305,17.703,32.269
		l-40.336,16.135C571.561,431.949,563.493,413.351,563.493,394.078z M566.63,538.393c0-19.271,16.135-35.406,35.406-35.406
		c19.272,0,35.406,16.135,35.406,35.406s-16.134,35.406-35.406,35.406C582.765,574.022,566.63,557.888,566.63,538.393z"/>
</g>
</svg>
