<?xml version="1.0" encoding="utf-8"?>
<!-- Generator: Adobe Illustrator 19.1.0, SVG Export Plug-In . SVG Version: 6.00 Build 0)  -->
<svg version="1.1" id="Layer_1" xmlns="http://www.w3.org/2000/svg" xmlns:xlink="http://www.w3.org/1999/xlink" x="0px" y="0px"
	 viewBox="0 0 360 360" style="enable-background:new 0 0 360 360;" xml:space="preserve">
<style type="text/css">
	.st0{fill:#2D3973;}
</style>
<path class="st0" d="M126.8,180c0-13.3,0-25.6,0-38.6c6.9,0,13.8,0,21.5,0c0-2.4-0.1-4.3,0-6.2c0.3-9.7-0.1-19.6,1.1-29.2
	c2.5-20.5,16.1-33.8,36.6-35.2c13.6-0.9,27.3-0.2,41.3-0.2c0,11.8,0,24,0,36.7c-6.6,0-13,0-19.4,0c-11.6,0-14.1,2.4-14.2,13.8
	c0,6.4,0,12.9,0,19.9c11.6,0,22.9,0,34.8,0c-1.3,12.5-2.4,24.2-3.9,36c-0.1,1.1-2.7,2.6-4.1,2.7c-8.7,0.3-17.4,0.1-26.7,0.1
	c0,36.8,0,73.1,0,109.7c-15.3,0-30.1,0-45.4,0c0-36.4,0-72.7,0-109.5C141,180,134.1,180,126.8,180z"/>
<path class="st0" d="M179.5,358c-97.9,0-178.1-79.8-178-177.5C1.5,81.9,81.1,2,179.5,2c98.2,0,178,79.8,178,178
	C357.5,278.1,277.7,358,179.5,358z M333,180c0-84.6-68.6-153.4-153.2-153.6C94.9,26.3,26,95.2,26,180c0,84.6,68.7,153.5,153.2,153.6
	C264.1,333.6,333,264.8,333,180z"/>
</svg>
